<svg version="1.1" id="Capa_1" xmlns="http://www.w3.org/2000/svg" x="0" y="0" viewBox="0 0 55.193 55.193" xml:space="preserve"><path d="M52.59.016c-.091.015-8.775 1.777-6.857 13.441.697 4.25.333 7.447-.327 9.738-.153.529-.474.533-.7.031C41.145 15.372 33.239 9.894 24.07 9.894c-12.488 0-22.649 10.16-22.649 22.647 0 5.537 2 10.611 5.311 14.551 3.359 3.988 8.047 6.8 13.371 7.744.543.097.999.166 1.014.183.014.014.035.019.048.006.013-.015.467.037 1.017.084.623.056 1.253.084 1.89.084 12.489 0 22.649-10.162 22.649-22.649 0-1.566-.162-3.095-.467-4.572-.111-.541-.004-1.365.229-1.865 1.188-2.562 2.243-6.771 1.224-12.973-1.592-9.684 4.975-11.098 5.249-11.15A1 1 0 1052.59.016zM33.746 13.964a20.78 20.78 0 012.443 1.496c.449.32.49.922.097 1.309a41.38 41.38 0 01-1.204 1.137c-.408.371-.988.283-1.217-.219-.346-.756-.695-1.799-.9-3.17-.082-.547.293-.807.781-.553zm-6.023-1.042c.083-.545.632-.901 1.169-.774.32.076.637.16.95.25.53.154.969.75 1.016 1.299.209 2.43.828 4.154 1.415 5.289.254.49.153 1.139-.286 1.471-.449.338-.9.664-1.355.981a.921.921 0 01-1.343-.295c-.944-1.707-2.113-4.67-1.566-8.221zm-5.537-.267c.048-.551.504-1.031.994-1.059a16.335 16.335 0 011.817 0c.515.029.825.505.741 1.05-.643 4.18.742 7.613 1.855 9.576.272.481.139 1.086-.339 1.365-.483.281-.97.555-1.455.818-.485.262-1.127.092-1.392-.395-1.1-2.018-2.683-5.963-2.221-11.355zm-4.21-.158c.426-.131.857-.25 1.295-.353.537-.129.929.238.891.789-.39 5.629 1.227 9.746 2.442 11.973.265.486.101 1.057-.403 1.283-.533.24-1.063.469-1.591.688-.51.212-1.122-.026-1.338-.536-.963-2.266-2.424-6.709-2.284-12.529.014-.551.46-1.152.988-1.315zm-5.611 2.682c.559-.379 1.138-.73 1.734-1.055.485-.264.877-.01.877.543.008 5.695 1.42 10.033 2.42 12.389.216.508-.01 1.065-.532 1.244-.554.191-1.1.371-1.637.541-.526.166-1.221-.067-1.488-.552-.939-1.693-2.278-5.226-2.21-11.531.006-.553.378-1.27.836-1.579zM7.357 19.9c.459-.602.95-1.178 1.471-1.729.379-.4.704-.261.721.292.154 5.195 1.251 8.475 2.215 10.377.249.492.055.988-.482 1.123-.548.137-1.079.264-1.59.379-.538.123-1.249-.146-1.476-.649-.982-2.184-1.305-6.137-1.404-7.984-.029-.551.21-1.369.545-1.809zM4.69 24.589c.21-.512.415-.467.458.084.176 2.293.668 4.087 1.148 5.356.195.517-.055 1.004-.601 1.093-.589.096-1.108.17-1.551.229-.547.071-.971-.326-.918-.877a20.777 20.777 0 011.464-5.885zM3.664 37.301a20.69 20.69 0 01-.45-2.813c-.05-.551.378-1.041.925-1.106 5.164-.627 21.761-3.496 33.653-15.285.394-.389.606-.805.489-.918-.118-.113.121.092.514.479a20.857 20.857 0 011.736 1.938c.343.433.332 1.157-.014 1.587C29.634 34.734 10.822 37.607 4.908 38.185c-.549.053-1.12-.345-1.244-.884zm3.058 6.974a20.81 20.81 0 01-1.754-3.121c-.228-.502.056-.955.605-1.01 6.594-.654 24.837-3.668 36.073-17.188.354-.424.854-.391 1.105.1.377.734.715 1.492 1.006 2.273.19.518.071 1.316-.25 1.766-6.874 9.549-16.976 14.036-24.857 16.145-.533.142-1.049.25-1.148.25-.101 0-.182.021-.181.043.001.025-.434.15-.973.271-3.505.786-6.38 1.1-8.047 1.223-.551.041-1.269-.295-1.579-.752zm6.315 6.087a21.17 21.17 0 01-3.431-2.67c-.399-.382-.259-.745.29-.804a49.4 49.4 0 001.584-.189 1.079 1.079 0 011.178.843c.21.928.49 1.735.797 2.432.225.503.051.679-.418.388zm5.724 2.461a19.15 19.15 0 01-1.145-.346c-.523-.173-1.208-.696-1.479-1.18-.458-.812-1.107-2.198-1.514-4.086-.116-.539.261-1.063.802-1.174.336-.067.68-.141 1.028-.217.539-.119 1.017.223 1.097.77.341 2.345 1.025 4.209 1.709 5.586.246.494.035.791-.498.647zm6.732.637c-.471.035-.945.057-1.425.057-.282 0-.562-.01-.842-.025-.463-.029-1.121-.408-1.42-.873-.767-1.185-1.883-3.373-2.307-6.523-.074-.549.324-1.111.854-1.266a52.889 52.889 0 002.042-.634c.525-.172 1.023.119 1.131.662.738 3.72 1.667 6.123 2.464 7.64.257.486.054.921-.497.962zm6.13-1.368c-.643.25-1.301.467-1.974.652-.532.147-1.252-.106-1.538-.58-.744-1.232-1.843-3.65-2.68-8.017-.104-.541.237-1.146.748-1.354a53.157 53.157 0 002.066-.904c.502-.232.944.016 1.012.564.542 4.375 1.689 6.973 2.688 8.459.309.458.193.98-.322 1.18zm5.765-3.39a21.409 21.409 0 01-2.116 1.545c-.466.297-1.181.202-1.503-.244-.875-1.217-2.123-3.732-2.613-8.535-.057-.549.307-1.209.785-1.483.484-.276.969-.563 1.449-.862.471-.291.853-.091.901.461a13.94 13.94 0 003.181 7.723c.355.42.342 1.043-.084 1.395zm4.404-4.989a21.073 21.073 0 01-1.575 2.16c-.353.424-.972.437-1.318.006-1.176-1.455-2.672-4.028-2.674-7.696 0-.552.395-1.267.83-1.606a43.87 43.87 0 001.519-1.234c.421-.356.769-.209.821.343.306 3.144 1.393 5.209 2.273 6.401.328.445.42 1.16.124 1.626zm1.871-3.718c-.196.516-.651.567-.925.088-.727-1.273-1.464-3.316-1.432-6.324.006-.553.353-1.318.729-1.723a38.22 38.22 0 001.753-2.017c.349-.429.688-.854.771-.94.082-.089.227.28.3.827.114.863.183 1.742.183 2.638a20.798 20.798 0 01-1.379 7.451z" fill="#fff"/></svg>