<svg version="1.1" id="Capa_1" xmlns="http://www.w3.org/2000/svg" x="0" y="0" viewBox="0 0 512 512" xml:space="preserve"><path d="M376.264 290.173c66.314-66.293 66.314-174.16 0-240.453-66.314-66.294-174.214-66.294-240.529 0-66.314 66.293-66.314 174.16 0 240.453 28.07 28.061 63.591 44.24 100.254 48.546v56.923h-40.018c-11.051 0-20.009 8.956-20.009 20.003s8.958 20.003 20.009 20.003h40.018v56.348c.001 11.047 8.959 20.003 20.011 20.003 11.051 0 20.009-8.956 20.009-20.003v-56.348h40.019c11.051 0 20.009-8.956 20.009-20.003s-8.958-20.003-20.009-20.003h-40.019V338.72c36.664-4.307 72.185-20.486 100.255-48.547zm-212.231-28.289c-50.711-50.695-50.711-133.181 0-183.876 50.71-50.693 133.221-50.696 183.934 0 50.711 50.695 50.711 133.181 0 183.876-50.711 50.694-133.223 50.694-183.934 0z"/></svg>