<svg height="512" viewBox="0 0 60 60" width="512" xmlns="http://www.w3.org/2000/svg"><g id="Page-1" fill="none" fill-rule="evenodd"><g id="040---Paw" fill="#FFF" fill-rule="nonzero"><path id="Shape" d="M30 29c-4.532 0-13.872 7.365-15.97 15.757-1.06 4.243-.861 7.221.61 9.105C15.747 55.281 17.551 56 20 56a11.549 11.549 0 005.447-1.6A9.8 9.8 0 0130 53a9.8 9.8 0 014.553 1.4A11.549 11.549 0 0040 56c2.449 0 4.253-.719 5.36-2.138 1.471-1.884 1.67-4.862.61-9.105C43.872 36.365 34.532 29 30 29zm13.784 23.631C43.064 53.552 41.827 54 40 54a9.8 9.8 0 01-4.553-1.4A11.549 11.549 0 0030 51c-1.92.072-3.793.622-5.447 1.6A9.8 9.8 0 0120 54c-1.827 0-3.064-.448-3.784-1.369-1.052-1.347-1.135-3.833-.246-7.388C17.883 37.593 26.553 31 30 31s12.117 6.593 14.03 14.243c.889 3.557.806 6.041-.246 7.388zM22 27c3.925 0 7-4.832 7-11S25.925 5 22 5s-7 4.832-7 11 3.075 11 7 11zm0-20c2.71 0 5 4.122 5 9s-2.29 9-5 9-5-4.122-5-9 2.29-9 5-9zm-4.894 25.3a11.8 11.8 0 00-1.016-6.313c-2.037-4.618-6.045-7.172-9.121-5.815s-3.9 6.038-1.86 10.656a11.814 11.814 0 003.975 5.008A6.11 6.11 0 0012.485 37a4.29 4.29 0 001.744-.363 5.261 5.261 0 002.877-4.337zm-3.683 2.51a3.369 3.369 0 01-3.215-.629 9.812 9.812 0 01-3.269-4.162c-1.53-3.472-1.147-7.144.836-8.019.298-.13.62-.195.945-.192 1.891 0 4.237 2.029 5.54 4.984a9.8 9.8 0 01.867 5.22 3.37 3.37 0 01-1.704 2.798zM38 27c3.925 0 7-4.832 7-11S41.925 5 38 5s-7 4.832-7 11 3.075 11 7 11zm0-20c2.71 0 5 4.122 5 9s-2.29 9-5 9-5-4.122-5-9 2.29-9 5-9zm15.031 13.17c-3.071-1.357-7.084 1.2-9.121 5.815a11.8 11.8 0 00-1.016 6.315 5.261 5.261 0 002.877 4.342c.55.24 1.144.362 1.744.358a6.11 6.11 0 003.4-1.169 11.814 11.814 0 003.975-5.008c2.037-4.615 1.219-9.296-1.859-10.653zm.03 9.849a9.812 9.812 0 01-3.269 4.162c-.89.752-2.107.99-3.215.629a3.37 3.37 0 01-1.7-2.8 9.8 9.8 0 01.867-5.22c1.531-3.472 4.5-5.669 6.485-4.792s2.362 4.549.832 8.021z"/><path id="Shape" d="M55.447 16.105a12.121 12.121 0 00-5.217-1.162 13.124 13.124 0 00-2.6-10.106A12.374 12.374 0 0038 0c-4.582 0-6.883 2.019-8 3.675C28.883 2.019 26.582 0 22 0a12.374 12.374 0 00-9.626 4.837 13.124 13.124 0 00-2.6 10.106 12.136 12.136 0 00-5.217 1.162C2.476 17.144 0 20.051 0 28c0 4.321 1.32 8.808 2.718 13.559 1.451 4.931 2.951 10.03 3.234 15.61A2.989 2.989 0 008.942 60h42.116a2.989 2.989 0 002.99-2.832c.283-5.579 1.783-10.678 3.234-15.609C58.68 36.808 60 32.321 60 28c0-7.949-2.476-10.856-4.553-11.895zm-.084 24.889c-1.483 5.043-3.017 10.257-3.313 16.071a.99.99 0 01-.992.935H8.942a.99.99 0 01-.992-.934c-.3-5.815-1.83-11.029-3.313-16.072C3.28 36.386 2 32.033 2 28c0-7.565 2.411-9.587 3.447-10.1a10.2 10.2 0 014.441-.95 8.6 8.6 0 01.982.047 1 1 0 001.1-1.235 11.211 11.211 0 011.98-9.69A10.367 10.367 0 0122 2c6.04 0 6.983 4.032 7.02 4.2a1 1 0 00.973.8H30a1 1 0 00.978-.792C31.017 6.032 31.96 2 38 2a10.367 10.367 0 018.05 4.067 11.211 11.211 0 011.98 9.69 1 1 0 001.1 1.235 10.738 10.738 0 015.426.9C55.589 18.413 58 20.435 58 28c0 4.033-1.28 8.386-2.637 12.994z"/></g></g></svg>