<svg id="_x31__px" height="512" viewBox="0 0 24 24" width="512" xmlns="http://www.w3.org/2000/svg"><path fill="#fff" d="M17.5 24a.496.496 0 01-.299-.1C16.948 23.712 11 19.23 11 15.631a3.632 3.632 0 016.5-2.228A3.63 3.63 0 0120.37 12 3.634 3.634 0 0124 15.631c0 3.6-5.948 8.081-6.201 8.27A.501.501 0 0117.5 24zm-2.87-11A2.634 2.634 0 0012 15.631c0 2.429 3.723 5.848 5.5 7.239 1.776-1.392 5.5-4.813 5.5-7.239C23 14.181 21.82 13 20.37 13a2.625 2.625 0 00-2.411 1.577c-.158.365-.759.365-.917 0A2.627 2.627 0 0014.63 13z"/><path fill="#fff" d="M9.5 20H5c-1.103 0-2-.897-2-2v-7H1a.99.99 0 01-1-1c0-.281.122-.559.326-.742L10.159.134a.5.5 0 01.68 0L14 3.064V1.5a.5.5 0 01.5-.5h3a.5.5 0 01.5.5v5.272l2.68 2.491a.5.5 0 01-.681.732l-2.84-2.64A.497.497 0 0117 6.99V2h-2v2.21a.5.5 0 01-.84.366L10.5 1.182 1 9.996 3.5 10a.5.5 0 01.5.5V18c0 .552.449 1 1 1h4.5a.5.5 0 010 1z"/></svg>