<svg id="_x31__px" height="512" viewBox="0 0 24 24" width="512" xmlns="http://www.w3.org/2000/svg">
    <g>
        <path fill="white" d="m17.5 24c-.105 0-.21-.033-.299-.1-.253-.188-6.201-4.67-6.201-8.269 0-2.002 1.628-3.631 3.63-3.631 1.14 0 2.193.531 2.87 1.403.676-.872 1.729-1.403 2.87-1.403 2.002 0 3.63 1.629 3.63 3.631 0 3.6-5.948 8.081-6.201 8.27-.089.066-.194.099-.299.099zm-2.87-11c-1.45 0-2.63 1.181-2.63 2.631 0 2.429 3.723 5.848 5.5 7.239 1.776-1.392 5.5-4.813 5.5-7.239 0-1.45-1.18-2.631-2.63-2.631-1.049 0-1.995.619-2.411 1.577-.158.365-.759.365-.917 0-.417-.958-1.363-1.577-2.412-1.577z"/>
    </g>
    <g>
        <path fill="white" d="m9.5 20h-4.5c-1.103 0-2-.897-2-2v-7h-2c-.561 0-1-.439-1-1 0-.281.122-.559.326-.742l9.833-9.124c.192-.178.489-.178.68 0l3.161 2.93v-1.564c0-.276.224-.5.5-.5h3c.276 0 .5.224.5.5v5.272l2.68 2.491c.202.188.214.504.026.707-.188.202-.504.215-.707.025l-2.84-2.64c-.101-.093-.159-.226-.159-.365v-4.99h-2v2.21c0 .199-.118.379-.3.458-.183.079-.395.043-.54-.092l-3.66-3.394-9.5 8.814 2.5.004c.276 0 .5.224.5.5v7.5c0 .552.449 1 1 1h4.5c.276 0 .5.224.5.5s-.224.5-.5.5z"/>
    </g>
</svg>